<?xml version="1.0" encoding="UTF-8" standalone="no"?>
<!DOCTYPE svg PUBLIC "-//W3C//DTD SVG 1.1//EN"
 "http://www.w3.org/Graphics/SVG/1.1/DTD/svg11.dtd">
<!-- Generated by graphviz version 14.1.1 (20251213.1925)
 -->
<!-- Pages: 1 -->
<svg width="220pt" height="332pt"
 viewBox="0.00 0.00 220.00 332.00" xmlns="http://www.w3.org/2000/svg" xmlns:xlink="http://www.w3.org/1999/xlink">
<g id="graph0" class="graph" transform="scale(1 1) rotate(0) translate(4 328)">
<polygon fill="white" stroke="none" points="-4,4 -4,-328 216,-328 216,4 -4,4"/>
<!-- x -->
<g id="node1" class="node">
<title>x</title>
<text xml:space="preserve" text-anchor="middle" x="27" y="-300.95" font-family="Times,serif" font-size="14.00">x</text>
</g>
<!-- u -->
<g id="node5" class="node">
<title>u</title>
<polygon fill="lightgray" stroke="black" points="98.38,-252 27.62,-252 27.62,-216 98.38,-216 98.38,-252"/>
<text xml:space="preserve" text-anchor="middle" x="63" y="-228.95" font-family="Times,serif" font-size="14.00">u = w × x</text>
</g>
<!-- x&#45;&gt;u -->
<g id="edge2" class="edge">
<title>x&#45;&gt;u</title>
<path fill="none" stroke="black" d="M35.71,-288.05C39.68,-280.35 44.47,-271.03 48.93,-262.36"/>
<polygon fill="black" stroke="black" points="51.96,-264.11 53.42,-253.62 45.74,-260.91 51.96,-264.11"/>
</g>
<!-- w -->
<g id="node2" class="node">
<title>w</title>
<text xml:space="preserve" text-anchor="middle" x="99" y="-300.95" font-family="Times,serif" font-size="14.00">w</text>
</g>
<!-- w&#45;&gt;u -->
<g id="edge1" class="edge">
<title>w&#45;&gt;u</title>
<path fill="none" stroke="black" d="M90.29,-288.05C86.32,-280.35 81.53,-271.03 77.07,-262.36"/>
<polygon fill="black" stroke="black" points="80.26,-260.91 72.58,-253.62 74.04,-264.11 80.26,-260.91"/>
</g>
<!-- b -->
<g id="node3" class="node">
<title>b</title>
<text xml:space="preserve" text-anchor="middle" x="143" y="-228.95" font-family="Times,serif" font-size="14.00">b</text>
</g>
<!-- v -->
<g id="node6" class="node">
<title>v</title>
<polygon fill="lightgray" stroke="black" points="136.88,-180 69.12,-180 69.12,-144 136.88,-144 136.88,-180"/>
<text xml:space="preserve" text-anchor="middle" x="103" y="-156.95" font-family="Times,serif" font-size="14.00">v = u + b</text>
</g>
<!-- b&#45;&gt;v -->
<g id="edge4" class="edge">
<title>b&#45;&gt;v</title>
<path fill="none" stroke="black" d="M133.32,-216.05C128.86,-208.26 123.47,-198.82 118.47,-190.08"/>
<polygon fill="black" stroke="black" points="121.62,-188.54 113.62,-181.59 115.55,-192.01 121.62,-188.54"/>
</g>
<!-- y -->
<g id="node4" class="node">
<title>y</title>
<text xml:space="preserve" text-anchor="middle" x="185" y="-84.95" font-family="Times,serif" font-size="14.00">y</text>
</g>
<!-- loss -->
<g id="node8" class="node">
<title>loss</title>
<polygon fill="lightgray" stroke="black" points="182.75,-36 105.25,-36 105.25,0 182.75,0 182.75,-36"/>
<text xml:space="preserve" text-anchor="middle" x="144" y="-12.95" font-family="Times,serif" font-size="14.00">ℓ = (ŷ &#45; y)²</text>
</g>
<!-- y&#45;&gt;loss -->
<g id="edge7" class="edge">
<title>y&#45;&gt;loss</title>
<path fill="none" stroke="black" d="M175.08,-72.05C170.51,-64.26 164.98,-54.82 159.86,-46.08"/>
<polygon fill="black" stroke="black" points="162.96,-44.44 154.88,-37.58 156.92,-47.98 162.96,-44.44"/>
</g>
<!-- u&#45;&gt;v -->
<g id="edge3" class="edge">
<title>u&#45;&gt;v</title>
<path fill="none" stroke="black" d="M72.89,-215.7C77.34,-207.9 82.71,-198.51 87.67,-189.83"/>
<polygon fill="black" stroke="black" points="90.55,-191.84 92.48,-181.42 84.47,-188.36 90.55,-191.84"/>
</g>
<!-- yhat -->
<g id="node7" class="node">
<title>yhat</title>
<polygon fill="lightgray" stroke="black" points="139.88,-108 66.12,-108 66.12,-72 139.88,-72 139.88,-108"/>
<text xml:space="preserve" text-anchor="middle" x="103" y="-84.95" font-family="Times,serif" font-size="14.00">ŷ = exp(v)</text>
</g>
<!-- v&#45;&gt;yhat -->
<g id="edge5" class="edge">
<title>v&#45;&gt;yhat</title>
<path fill="none" stroke="black" d="M103,-143.7C103,-136.41 103,-127.73 103,-119.54"/>
<polygon fill="black" stroke="black" points="106.5,-119.62 103,-109.62 99.5,-119.62 106.5,-119.62"/>
</g>
<!-- yhat&#45;&gt;loss -->
<g id="edge6" class="edge">
<title>yhat&#45;&gt;loss</title>
<path fill="none" stroke="black" d="M113.13,-71.7C117.7,-63.9 123.2,-54.51 128.29,-45.83"/>
<polygon fill="black" stroke="black" points="131.18,-47.81 133.22,-37.41 125.14,-44.27 131.18,-47.81"/>
</g>
</g>
</svg>
