<?xml version="1.0" encoding="UTF-8" standalone="no"?>
<!DOCTYPE svg PUBLIC "-//W3C//DTD SVG 1.1//EN"
 "http://www.w3.org/Graphics/SVG/1.1/DTD/svg11.dtd">
<!-- Generated by graphviz version 14.1.1 (20251213.1925)
 -->
<!-- Pages: 1 -->
<svg width="260pt" height="98pt"
 viewBox="0.00 0.00 260.00 98.00" xmlns="http://www.w3.org/2000/svg" xmlns:xlink="http://www.w3.org/1999/xlink">
<g id="graph0" class="graph" transform="scale(1 1) rotate(0) translate(4 94)">
<polygon fill="white" stroke="none" points="-4,4 -4,-94 256,-94 256,4 -4,4"/>
<!-- A -->
<g id="node1" class="node">
<title>A</title>
<ellipse fill="lightblue" stroke="black" cx="18" cy="-72" rx="18" ry="18"/>
<text xml:space="preserve" text-anchor="middle" x="18" y="-66.95" font-family="Times,serif" font-size="14.00">A</text>
</g>
<!-- C -->
<g id="node3" class="node">
<title>C</title>
<ellipse fill="lightgray" stroke="black" cx="90" cy="-45" rx="18" ry="18"/>
<text xml:space="preserve" text-anchor="middle" x="90" y="-39.95" font-family="Times,serif" font-size="14.00">C</text>
</g>
<!-- A&#45;&gt;C -->
<g id="edge1" class="edge">
<title>A&#45;&gt;C</title>
<path fill="none" stroke="black" d="M35.24,-65.74C43.28,-62.64 53.19,-58.81 62.31,-55.3"/>
<polygon fill="black" stroke="black" points="63.37,-58.64 71.44,-51.77 60.85,-52.11 63.37,-58.64"/>
</g>
<!-- B -->
<g id="node2" class="node">
<title>B</title>
<ellipse fill="lightblue" stroke="black" cx="18" cy="-18" rx="18" ry="18"/>
<text xml:space="preserve" text-anchor="middle" x="18" y="-12.95" font-family="Times,serif" font-size="14.00">B</text>
</g>
<!-- B&#45;&gt;C -->
<g id="edge2" class="edge">
<title>B&#45;&gt;C</title>
<path fill="none" stroke="black" d="M35.24,-24.26C43.28,-27.36 53.19,-31.19 62.31,-34.7"/>
<polygon fill="black" stroke="black" points="60.85,-37.89 71.44,-38.23 63.37,-31.36 60.85,-37.89"/>
</g>
<!-- D -->
<g id="node4" class="node">
<title>D</title>
<ellipse fill="lightgray" stroke="black" cx="162" cy="-45" rx="18" ry="18"/>
<text xml:space="preserve" text-anchor="middle" x="162" y="-39.95" font-family="Times,serif" font-size="14.00">D</text>
</g>
<!-- C&#45;&gt;D -->
<g id="edge3" class="edge">
<title>C&#45;&gt;D</title>
<path fill="none" stroke="black" d="M108.3,-45C115.59,-45 124.27,-45 132.46,-45"/>
<polygon fill="black" stroke="black" points="132.38,-48.5 142.38,-45 132.38,-41.5 132.38,-48.5"/>
</g>
<!-- E -->
<g id="node5" class="node">
<title>E</title>
<ellipse fill="lightgreen" stroke="black" cx="234" cy="-45" rx="18" ry="18"/>
<text xml:space="preserve" text-anchor="middle" x="234" y="-39.95" font-family="Times,serif" font-size="14.00">E</text>
</g>
<!-- D&#45;&gt;E -->
<g id="edge4" class="edge">
<title>D&#45;&gt;E</title>
<path fill="none" stroke="black" d="M180.3,-45C187.59,-45 196.27,-45 204.46,-45"/>
<polygon fill="black" stroke="black" points="204.38,-48.5 214.38,-45 204.38,-41.5 204.38,-48.5"/>
</g>
</g>
</svg>
