<?xml version="1.0" encoding="UTF-8" standalone="no"?>
<!DOCTYPE svg PUBLIC "-//W3C//DTD SVG 1.1//EN"
 "http://www.w3.org/Graphics/SVG/1.1/DTD/svg11.dtd">
<!-- Generated by graphviz version 14.1.1 (20251213.1925)
 -->
<!-- Pages: 1 -->
<svg width="216pt" height="398pt"
 viewBox="0.00 0.00 216.00 398.00" xmlns="http://www.w3.org/2000/svg" xmlns:xlink="http://www.w3.org/1999/xlink">
<g id="graph0" class="graph" transform="scale(1 1) rotate(0) translate(4 394)">
<polygon fill="white" stroke="none" points="-4,4 -4,-394 212,-394 212,4 -4,4"/>
<!-- x -->
<g id="node1" class="node">
<title>x</title>
<text xml:space="preserve" text-anchor="middle" x="27" y="-366.95" font-family="Times,serif" font-size="14.00">x</text>
</g>
<!-- u -->
<g id="node5" class="node">
<title>u</title>
<polygon fill="lightgray" stroke="black" points="101.38,-301.5 30.62,-301.5 30.62,-265.5 101.38,-265.5 101.38,-301.5"/>
<text xml:space="preserve" text-anchor="middle" x="66" y="-278.45" font-family="Times,serif" font-size="14.00">u = w × x</text>
</g>
<!-- x&#45;&gt;u -->
<g id="edge2" class="edge">
<title>x&#45;&gt;u</title>
<path fill="none" stroke="black" d="M34.52,-354.32C39.9,-342.39 47.26,-326.05 53.52,-312.18"/>
<polygon fill="black" stroke="black" points="56.69,-313.65 57.61,-303.1 50.31,-310.78 56.69,-313.65"/>
</g>
<!-- w -->
<g id="node2" class="node">
<title>w</title>
<text xml:space="preserve" text-anchor="middle" x="99" y="-366.95" font-family="Times,serif" font-size="14.00">w</text>
</g>
<!-- w&#45;&gt;u -->
<g id="edge1" class="edge">
<title>w&#45;&gt;u</title>
<path fill="none" stroke="black" d="M88.91,-354.29C85.76,-348.62 82.47,-342.16 80,-336 77.07,-328.69 74.54,-320.56 72.47,-312.95"/>
<polygon fill="black" stroke="black" points="75.91,-312.29 70.06,-303.46 69.13,-314.02 75.91,-312.29"/>
</g>
<!-- w&#45;&gt;u -->
<g id="edge11" class="edge">
<title>w&#45;&gt;u</title>
<path fill="none" stroke="red" stroke-dasharray="5,2" d="M88.68,-343.94C83.41,-330.14 77.17,-313.78 72.57,-301.72"/>
<polygon fill="red" stroke="red" points="85.26,-344.81 92.1,-352.91 91.8,-342.32 85.26,-344.81"/>
<text xml:space="preserve" text-anchor="start" x="85.46" y="-323.7" font-family="Times,serif" font-weight="bold" font-size="14.00" fill="red">5</text>
</g>
<!-- b -->
<g id="node3" class="node">
<title>b</title>
<text xml:space="preserve" text-anchor="middle" x="146" y="-278.45" font-family="Times,serif" font-size="14.00">b</text>
</g>
<!-- v -->
<g id="node6" class="node">
<title>v</title>
<polygon fill="lightgray" stroke="black" points="132.88,-213 65.12,-213 65.12,-177 132.88,-177 132.88,-213"/>
<text xml:space="preserve" text-anchor="middle" x="99" y="-189.95" font-family="Times,serif" font-size="14.00">v = u + b</text>
</g>
<!-- b&#45;&gt;v -->
<g id="edge4" class="edge">
<title>b&#45;&gt;v</title>
<path fill="none" stroke="black" d="M136.94,-265.82C130.39,-253.77 121.4,-237.23 113.82,-223.27"/>
<polygon fill="black" stroke="black" points="116.93,-221.66 109.08,-214.55 110.78,-225.01 116.93,-221.66"/>
</g>
<!-- y -->
<g id="node4" class="node">
<title>y</title>
<text xml:space="preserve" text-anchor="middle" x="181" y="-101.45" font-family="Times,serif" font-size="14.00">y</text>
</g>
<!-- loss -->
<g id="node8" class="node">
<title>loss</title>
<polygon fill="lightgray" stroke="black" points="176,-36 88,-36 88,0 176,0 176,-36"/>
<text xml:space="preserve" text-anchor="start" x="96" y="-13.95" font-family="Times,serif" font-weight="bold" font-size="14.00" fill="red">1</text>
<text xml:space="preserve" text-anchor="start" x="102.75" y="-13.95" font-family="Times,serif" font-size="14.00"> ℓ = (ŷ &#45; y)²</text>
</g>
<!-- y&#45;&gt;loss -->
<g id="edge7" class="edge">
<title>y&#45;&gt;loss</title>
<path fill="none" stroke="black" d="M171.55,-88.82C164.66,-76.65 155.17,-59.91 147.22,-45.86"/>
<polygon fill="black" stroke="black" points="150.47,-44.51 142.5,-37.54 144.38,-47.96 150.47,-44.51"/>
</g>
<!-- u&#45;&gt;v -->
<g id="edge3" class="edge">
<title>u&#45;&gt;v</title>
<path fill="none" stroke="black" d="M69.69,-265.01C72.09,-254.88 75.59,-242.01 80,-231 81,-228.51 82.13,-225.97 83.33,-223.45"/>
<polygon fill="black" stroke="black" points="86.34,-225.26 87.82,-214.76 80.12,-222.05 86.34,-225.26"/>
</g>
<!-- u&#45;&gt;v -->
<g id="edge10" class="edge">
<title>u&#45;&gt;v</title>
<path fill="none" stroke="red" stroke-dasharray="5,2" d="M76.61,-254.69C81.79,-241.11 87.87,-225.18 92.38,-213.35"/>
<polygon fill="red" stroke="red" points="73.35,-253.41 73.06,-264 79.89,-255.9 73.35,-253.41"/>
<text xml:space="preserve" text-anchor="start" x="85.46" y="-235.2" font-family="Times,serif" font-weight="bold" font-size="14.00" fill="red">4</text>
</g>
<!-- yhat -->
<g id="node7" class="node">
<title>yhat</title>
<polygon fill="lightgray" stroke="black" points="135.88,-124.5 62.12,-124.5 62.12,-88.5 135.88,-88.5 135.88,-124.5"/>
<text xml:space="preserve" text-anchor="middle" x="99" y="-101.45" font-family="Times,serif" font-size="14.00">ŷ = exp(v)</text>
</g>
<!-- v&#45;&gt;yhat -->
<g id="edge5" class="edge">
<title>v&#45;&gt;yhat</title>
<path fill="none" stroke="black" d="M97.81,-176.56C97.48,-170.96 97.16,-164.72 97,-159 96.79,-151.67 96.79,-149.83 97,-142.5 97.06,-140.44 97.14,-138.32 97.23,-136.19"/>
<polygon fill="black" stroke="black" points="100.71,-136.62 97.73,-126.45 93.72,-136.26 100.71,-136.62"/>
</g>
<!-- v&#45;&gt;yhat -->
<g id="edge9" class="edge">
<title>v&#45;&gt;yhat</title>
<path fill="none" stroke="red" stroke-dasharray="5,2" d="M99,-165.78C99,-152.29 99,-136.56 99,-124.85"/>
<polygon fill="red" stroke="red" points="95.5,-165.4 99,-175.4 102.5,-165.4 95.5,-165.4"/>
<text xml:space="preserve" text-anchor="start" x="99" y="-146.7" font-family="Times,serif" font-weight="bold" font-size="14.00" fill="red">3</text>
</g>
<!-- yhat&#45;&gt;loss -->
<g id="edge6" class="edge">
<title>yhat&#45;&gt;loss</title>
<path fill="none" stroke="black" d="M102.69,-88.01C105.09,-77.88 108.59,-65.01 113,-54 114,-51.51 115.13,-48.97 116.33,-46.45"/>
<polygon fill="black" stroke="black" points="119.34,-48.26 120.82,-37.76 113.12,-45.05 119.34,-48.26"/>
</g>
<!-- yhat&#45;&gt;loss -->
<g id="edge8" class="edge">
<title>yhat&#45;&gt;loss</title>
<path fill="none" stroke="red" stroke-dasharray="5,2" d="M109.61,-77.69C114.79,-64.11 120.87,-48.18 125.38,-36.35"/>
<polygon fill="red" stroke="red" points="106.35,-76.41 106.06,-87 112.89,-78.9 106.35,-76.41"/>
<text xml:space="preserve" text-anchor="start" x="118.46" y="-58.2" font-family="Times,serif" font-weight="bold" font-size="14.00" fill="red">2</text>
</g>
</g>
</svg>
