<?xml version="1.0" encoding="UTF-8" standalone="no"?>
<!DOCTYPE svg PUBLIC "-//W3C//DTD SVG 1.1//EN"
 "http://www.w3.org/Graphics/SVG/1.1/DTD/svg11.dtd">
<!-- Generated by graphviz version 14.1.1 (20251213.1925)
 -->
<!-- Pages: 1 -->
<svg width="260pt" height="98pt"
 viewBox="0.00 0.00 260.00 98.00" xmlns="http://www.w3.org/2000/svg" xmlns:xlink="http://www.w3.org/1999/xlink">
<g id="graph0" class="graph" transform="scale(1 1) rotate(0) translate(4 94)">
<polygon fill="white" stroke="none" points="-4,4 -4,-94 256,-94 256,4 -4,4"/>
<!-- A -->
<g id="node1" class="node">
<title>A</title>
<ellipse fill="lightblue" stroke="black" cx="18" cy="-45" rx="18" ry="18"/>
<text xml:space="preserve" text-anchor="middle" x="18" y="-39.95" font-family="Times,serif" font-size="14.00">A</text>
</g>
<!-- B -->
<g id="node2" class="node">
<title>B</title>
<ellipse fill="lightgray" stroke="black" cx="90" cy="-45" rx="18" ry="18"/>
<text xml:space="preserve" text-anchor="middle" x="90" y="-39.95" font-family="Times,serif" font-size="14.00">B</text>
</g>
<!-- A&#45;&gt;B -->
<g id="edge1" class="edge">
<title>A&#45;&gt;B</title>
<path fill="none" stroke="black" d="M36.3,-45C43.59,-45 52.27,-45 60.46,-45"/>
<polygon fill="black" stroke="black" points="60.38,-48.5 70.38,-45 60.38,-41.5 60.38,-48.5"/>
</g>
<!-- C -->
<g id="node3" class="node">
<title>C</title>
<ellipse fill="lightgray" stroke="black" cx="162" cy="-45" rx="18" ry="18"/>
<text xml:space="preserve" text-anchor="middle" x="162" y="-39.95" font-family="Times,serif" font-size="14.00">C</text>
</g>
<!-- B&#45;&gt;C -->
<g id="edge2" class="edge">
<title>B&#45;&gt;C</title>
<path fill="none" stroke="black" d="M108.3,-45C115.59,-45 124.27,-45 132.46,-45"/>
<polygon fill="black" stroke="black" points="132.38,-48.5 142.38,-45 132.38,-41.5 132.38,-48.5"/>
</g>
<!-- D -->
<g id="node4" class="node">
<title>D</title>
<ellipse fill="lightgreen" stroke="black" cx="234" cy="-72" rx="18" ry="18"/>
<text xml:space="preserve" text-anchor="middle" x="234" y="-66.95" font-family="Times,serif" font-size="14.00">D</text>
</g>
<!-- C&#45;&gt;D -->
<g id="edge3" class="edge">
<title>C&#45;&gt;D</title>
<path fill="none" stroke="black" d="M179.24,-51.26C187.28,-54.36 197.19,-58.19 206.31,-61.7"/>
<polygon fill="black" stroke="black" points="204.85,-64.89 215.44,-65.23 207.37,-58.36 204.85,-64.89"/>
</g>
<!-- E -->
<g id="node5" class="node">
<title>E</title>
<ellipse fill="lightgreen" stroke="black" cx="234" cy="-18" rx="18" ry="18"/>
<text xml:space="preserve" text-anchor="middle" x="234" y="-12.95" font-family="Times,serif" font-size="14.00">E</text>
</g>
<!-- C&#45;&gt;E -->
<g id="edge4" class="edge">
<title>C&#45;&gt;E</title>
<path fill="none" stroke="black" d="M179.24,-38.74C187.28,-35.64 197.19,-31.81 206.31,-28.3"/>
<polygon fill="black" stroke="black" points="207.37,-31.64 215.44,-24.77 204.85,-25.11 207.37,-31.64"/>
</g>
</g>
</svg>
